
 
http://www.imdb.com/title/tt1673434/


Plot:After the birth of Renesmee, the Cullens gather other vampire clans in order to protect the child from a false allegation that puts the family in front of the Volturi. 



Director:
 Bill Condon

Writers:
 Melissa Rosenberg (screenplay), Stephenie Meyer (novel)

Stars:
 Kristen Stewart, Robert Pattinson, Taylor Lautner

Genres:
 Adventure | Drama | Fantasy | Romance 

Country:
USA

Language:
English



Format                                   : AVI
Format/Info                              : Audio Video Interleave
File size                                : 695 MiB
Duration                                 : 1h 55mn
Overall bit rate                         : 844 Kbps
Writing application                      : Lavf54.59.103

Video
ID                                       : 0
Format                                   : MPEG-4 Visual
Format profile                           : Simple@L3
Format settings, BVOP                    : No
Format settings, QPel                    : No
Format settings, GMC                     : No warppoints
Format settings, Matrix                  : Default (H.263)
Codec ID                                 : XVID
Codec ID/Hint                            : XviD
Duration                                 : 1h 55mn
Bit rate                                 : 769 Kbps
Width                                    : 640 pixels
Height                                   : 272 pixels
Display aspect ratio                     : 2.35:1
Frame rate                               : 23.976 fps
Color space                              : YUV
Chroma subsampling                       : 4:2:0
Bit depth                                : 8 bits
Scan type                                : Progressive
Compression mode                         : Lossy
Bits/(Pixel*Frame)                       : 0.184
Stream size                              : 634 MiB (91%)
Writing library                          : XviD 64

Audio
ID                                       : 1
Format                                   : AC-3
Format/Info                              : Audio Coding 3
Mode extension                           : CM (complete main)
Format settings, Endianness              : Big
Codec ID                                 : 2000
Duration                                 : 1h 55mn
Bit rate mode                            : Constant
Bit rate                                 : 64.0 Kbps
Channel(s)                               : 2 channels
Channel positions                        : Front: L R
Sampling rate                            : 48.0 KHz
Bit depth                                : 16 bits
Compression mode                         : Lossy
Stream size                              : 52.7 MiB (8%)
Alignment                                : Aligned on interleaves
Interleave, duration                     : 32 ms (0.77 video frame)


 
http://bayimg.com/OAjjfAaEj
 
http://bayimg.com/oAjJGaaEj
 
http://bayimg.com/OAJjHaaeJ
 
http://bayimg.com/OaJJiaAEJ